<svg xmlns="http://www.w3.org/2000/svg" viewBox="0 0 25 27.38"><defs><style>.cls-1{fill:#fff;}</style></defs><title>Recurso 8click-here</title><g id="Capa_2" data-name="Capa 2"><g id="Capa_1-2" data-name="Capa 1"><path class="cls-1" d="M5.44.07c.3,0,.6-.06.9-.07a5.71,5.71,0,0,1,5.32,3.38,5.46,5.46,0,0,1,.49,2.32.76.76,0,0,1,0,.14,2,2,0,0,0-1.42-.25c-.07-.38-.12-.76-.22-1.13A4.23,4.23,0,0,0,2.25,6.2a4.15,4.15,0,0,0,.78,2,1,1,0,0,1,.13.28c.18.69.35,1.37.52,2.06l0,.18-.18-.11A5.7,5.7,0,0,1,4.59.31l.07,0Z"/><path class="cls-1" d="M6.4,16.87l0-.18q-1.29-5.1-2.57-10.2a2.82,2.82,0,0,1,1-3A2.71,2.71,0,0,1,9,4.79c.24.74.4,1.5.6,2.25.06.25.12.49.19.76a2.79,2.79,0,0,1,2.22-.7A2.75,2.75,0,0,1,14,8.36a2.81,2.81,0,0,1,2.27-.84,2.7,2.7,0,0,1,2,1.26,5.86,5.86,0,0,1,.6-.45,2.68,2.68,0,0,1,3.92,1.35,2.59,2.59,0,0,1,.14.42c.51,2,1,4.05,1.53,6.09A16.74,16.74,0,0,1,25,19.64a6.89,6.89,0,0,1-.44,2.91,5.71,5.71,0,0,1-2.23,2.63,11.54,11.54,0,0,1-2.94,1.35,21,21,0,0,1-2.84.68,8.68,8.68,0,0,1-3.76-.07,9.15,9.15,0,0,1-2.27-.94L1.43,20.81A2.67,2.67,0,0,1,.07,19a3,3,0,0,1,1.8-3.44,2.74,2.74,0,0,1,2.56.18l1.8,1.07.12.1ZM8.71,20l0,0a.94.94,0,0,0-.12-.09L3.94,17.15,3.66,17a1.53,1.53,0,0,0-1.87.76,1.35,1.35,0,0,0,.57,1.87L11.3,25a6.51,6.51,0,0,0,3.29.92,13.14,13.14,0,0,0,3.64-.54,12.11,12.11,0,0,0,3-1.18,4.43,4.43,0,0,0,2.39-4.1,12.58,12.58,0,0,0-.41-2.87c-.38-1.55-.77-3.09-1.16-4.64-.16-.63-.31-1.27-.48-1.9a2.17,2.17,0,0,0-.27-.6,1.24,1.24,0,0,0-1.5-.34A1.25,1.25,0,0,0,19,11.1c.24,1,.49,2,.76,3.06a.73.73,0,1,1-1.41.4l-.6-2.39c-.17-.67-.33-1.34-.51-2a1.16,1.16,0,0,0-1-.84A1.2,1.2,0,0,0,15,9.78a1.34,1.34,0,0,0-.2,1.18c.28,1.12.57,2.24.85,3.36a.74.74,0,0,1-.48.88.72.72,0,0,1-.92-.43,2.5,2.5,0,0,1-.11-.39c-.23-.91-.45-1.81-.68-2.71-.17-.65-.32-1.3-.5-1.94a1.19,1.19,0,0,0-1.42-.87,1.24,1.24,0,0,0-1.07,1.27,1.49,1.49,0,0,0,0,.36c.3,1.22.61,2.45.92,3.68a.74.74,0,1,1-1.43.37l-.09-.36L7.81,5.84a1.41,1.41,0,0,0-.06-.22A1.25,1.25,0,0,0,5.53,5.2a1.32,1.32,0,0,0-.22,1.24Q7,13.1,8.66,19.76Z"/></g></g></svg>